# xmcd CD database file
#
# Track frame offsets:
#	150
#	15226
#	30920
#	42346
#	56347
#	68454
#	82853
#	96910
#	107247
#	120550
#
# Disc length: 1825 seconds
#
# Revision: 1
# Processed by: cddbd v1.5.2PL0 Copyright (c) Steve Scherf et al.
# Submitted via: CDex 1.70beta2
#
DISCID=68071f0a
DTITLE=Gosdin,Vern - You've Got Somebody
DYEAR=2012
DGENRE=Country
TTITLE0=You've Got Somebody, I've Got Somebody
TTITLE1=All I Want And Need Forever
TTITLE2=He Must Be Lovin´ You Right
TTITLE3=The Rock I´m Leaning On
TTITLE4=She´s Gone
TTITLE5=Shake, Rattle And Roll
TTITLE6=Sarah´s Eyes
TTITLE7=Took It Like A Man, Cried Like A Baby
TTITLE8=Till I´m Over Gettin´ Over You
TTITLE9=Fifteen Hundred Times A Day
EXTD=YEAR: 2012
EXTT0=
EXTT1=
EXTT2=
EXTT3=
EXTT4=
EXTT5=
EXTT6=
EXTT7=
EXTT8=
EXTT9=
PLAYORDER=
